<svg xmlns="http://www.w3.org/2000/svg" xmlns:xlink="http://www.w3.org/1999/xlink" width="110" height="110" viewBox="0 0 110 110">
  <defs>
    <filter id="Rectangle_24" x="0" y="0" width="110" height="110" filterUnits="userSpaceOnUse">
      <feOffset dy="10" input="SourceAlpha"/>
      <feGaussianBlur stdDeviation="10" result="blur"/>
      <feFlood flood-color="#8ecff0" flood-opacity="0.333"/>
      <feComposite operator="in" in2="blur"/>
      <feComposite in="SourceGraphic"/>
    </filter>
  </defs>
  <g id="Group_226" data-name="Group 226" transform="translate(-6 -357)">
    <g transform="matrix(1, 0, 0, 1, 6, 357)" filter="url(#Rectangle_24)">
      <rect id="Rectangle_24-2" data-name="Rectangle 24" width="50" height="50" rx="12" transform="translate(30 20)" fill="#8ecff0"/>
    </g>
    <path id="Rectangle_25" data-name="Rectangle 25" d="M8,0h8a8,8,0,0,1,8,8V36a0,0,0,0,1,0,0H0a0,0,0,0,1,0,0V8A8,8,0,0,1,8,0Z" transform="translate(49 391)" fill="#a1dff9"/>
    <circle id="Ellipse_7" data-name="Ellipse 7" cx="16" cy="16" r="16" transform="translate(45 386)" fill="#c3ebff"/>
    <circle id="Ellipse_8" data-name="Ellipse 8" cx="8" cy="8" r="8" transform="translate(53 394)" fill="#8ecff0"/>
  </g>
</svg>
