<svg xmlns="http://www.w3.org/2000/svg" width="30.191" height="26.076" viewBox="0 0 30.191 26.076">
  <path id="eb10" d="M5.466,7.62a12.547,12.547,0,0,0,1.029,5.064,13.419,13.419,0,0,0,2.781,4.132A12.863,12.863,0,0,0,13.391,19.6a12.718,12.718,0,0,0,5.064,1.013,12.543,12.543,0,0,0,4.083-.659,13.466,13.466,0,0,0,3.537-1.817A13.529,13.529,0,0,1,24,21.333a14.025,14.025,0,0,1-2.878,2.524,13.4,13.4,0,0,1-7.459,2.219A13.266,13.266,0,0,1,8.344,25a13.7,13.7,0,0,1-7.266-7.266A13.266,13.266,0,0,1,0,12.411,13.14,13.14,0,0,1,.595,8.456a14.18,14.18,0,0,1,1.64-3.5A13.291,13.291,0,0,1,4.742,2.09,14.391,14.391,0,0,1,7.974,0,12.88,12.88,0,0,0,6.125,3.553,12.587,12.587,0,0,0,5.466,7.62Zm11-3.5-1.35,4.116L13.729,4.116,15.112,0ZM15.112,5.5,11,4.116l4.116-1.35,4.116,1.35Zm3.408,9.614-.675,2.058-.675-2.058.675-2.058Zm-.675.675-2.058-.675,2.058-.707,2.058.707ZM24.243,11l-.9,2.733L22.41,11l.932-2.765Zm-.9.9L20.578,11l2.765-.932L26.076,11Zm6.848,14.179" fill="#89a53a"/>
</svg>
