<svg xmlns="http://www.w3.org/2000/svg" width="19.902" height="19.897" viewBox="0 0 19.902 19.897">
  <path id="Icon_awesome-instagram" data-name="Icon awesome-instagram" d="M9.948,7.085a5.1,5.1,0,1,0,5.1,5.1A5.093,5.093,0,0,0,9.948,7.085Zm0,8.418a3.317,3.317,0,1,1,3.317-3.317A3.323,3.323,0,0,1,9.948,15.5Zm6.5-8.627a1.19,1.19,0,1,1-1.19-1.19A1.187,1.187,0,0,1,16.448,6.876Zm3.379,1.208a5.888,5.888,0,0,0-1.607-4.169A5.927,5.927,0,0,0,14.05,2.308c-1.643-.093-6.567-.093-8.209,0a5.919,5.919,0,0,0-4.169,1.6A5.908,5.908,0,0,0,.065,8.079c-.093,1.643-.093,6.566,0,8.209a5.888,5.888,0,0,0,1.607,4.169,5.935,5.935,0,0,0,4.169,1.607c1.643.093,6.567.093,8.209,0a5.888,5.888,0,0,0,4.169-1.607,5.927,5.927,0,0,0,1.607-4.169c.093-1.643.093-6.562,0-8.2ZM17.7,18.051a3.358,3.358,0,0,1-1.891,1.891c-1.31.519-4.418.4-5.865.4s-4.56.115-5.865-.4a3.358,3.358,0,0,1-1.891-1.891c-.519-1.31-.4-4.418-.4-5.865s-.115-4.56.4-5.865A3.358,3.358,0,0,1,4.083,4.43c1.31-.519,4.418-.4,5.865-.4s4.56-.115,5.865.4A3.358,3.358,0,0,1,17.7,6.321c.519,1.31.4,4.418.4,5.865S18.224,16.746,17.7,18.051Z" transform="translate(0.005 -2.238)" fill="#012448"/>
</svg>
