<svg xmlns="http://www.w3.org/2000/svg" width="21.305" height="25.31" viewBox="0 0 21.305 25.31">
  <g id="healthy-food" transform="translate(-54.999 -17.1)">
    <path id="Path_329" data-name="Path 329" d="M249.266,26.272a12.531,12.531,0,0,1,1.576-3.94l.148-.284c.871-1.665,1.772-3.389,1.724-4.39a.553.553,0,0,0-.539-.557.539.539,0,0,0-.539.545c-.024,1.238-.93,3.028-1.813,4.764a19.8,19.8,0,0,0-1.552,3.567l-.065.344c0,.018-.006.03-.006.047a1.14,1.14,0,0,0,.314.065A1.334,1.334,0,0,0,249.266,26.272Z" transform="translate(-183.251)" fill="#89a53a"/>
    <path id="Path_330" data-name="Path 330" d="M72.156,127.806h-.005a5.482,5.482,0,0,0-.62-.2c-2.008-.531-3.274.874-4.2,1.9-.18.2-.35.388-.514.542a.9.9,0,0,1-.106.092c-.005.005-.011.005-.011.01a1.784,1.784,0,0,1-1.229.342,1.605,1.605,0,0,1-.731-.225.028.028,0,0,0-.021-.01,1.015,1.015,0,0,1-.27-.245l-.016-.02a8.247,8.247,0,0,0-1.753-1.829,3.333,3.333,0,0,0-2.913-.557,6,6,0,0,0-3.676,3.229,9.849,9.849,0,0,0-1.091,4.3,13.947,13.947,0,0,0,2.585,7.387c1.61,2.34,3.549,3.734,5.186,3.734a4,4,0,0,0,1.9-.685,2.194,2.194,0,0,1,1.017-.215,1.95,1.95,0,0,1,.953.215,4.084,4.084,0,0,0,1.9.685c1.367,0,3.316-1.482,4.969-3.77a13.537,13.537,0,0,0,2.8-7.351c-.011-2.187-.9-6.044-4.148-7.316Zm-14.249,10.2a.314.314,0,0,1-.069.005.321.321,0,0,1-.313-.24l-.138-.623a.3.3,0,0,1,.244-.363.312.312,0,0,1,.376.235l.138.623A.3.3,0,0,1,57.907,138.008Zm.81-6.82a3.525,3.525,0,0,0-.683,1.19,7,7,0,0,0-.175,3.811.305.305,0,0,1-.254.358.315.315,0,0,1-.371-.245c-.736-3.786.959-5.477,1.033-5.548a.332.332,0,0,1,.45,0A.313.313,0,0,1,58.717,131.188Z" transform="translate(0 -103.833)" fill="#89a53a"/>
    <path id="Path_331" data-name="Path 331" d="M284.133,79.189a27.039,27.039,0,0,0-1.333,2.8c1.1-1.232,2.7-2.814,5.178-2.139.19.053.379.113.563.178a4.6,4.6,0,0,0,1.007-1.576l.273-.705-.77-.172A4.482,4.482,0,0,0,284.133,79.189Z" transform="translate(-216.829 -56.745)" fill="#89a53a"/>
    <path id="Path_332" data-name="Path 332" d="M146.072,38.542a8.717,8.717,0,0,1,1.825,1.884l.16-.835a6.259,6.259,0,0,0-4.592-6.76l-.48-.13,2.216,3.1a.36.36,0,0,1-.083.5.354.354,0,0,1-.5-.083l-2.281-3.193-.071.622a7.708,7.708,0,0,0,.776,3.993A4.382,4.382,0,0,1,146.072,38.542Z" transform="translate(-82.793 -14.676)" fill="#89a53a"/>
  </g>
</svg>
