<svg xmlns="http://www.w3.org/2000/svg" width="22.732" height="18.462" viewBox="0 0 22.732 18.462">
  <path id="Icon_awesome-twitter" data-name="Icon awesome-twitter" d="M20.4,7.982c.014.2.014.4.014.606A13.165,13.165,0,0,1,7.154,21.843,13.166,13.166,0,0,1,0,19.752a9.638,9.638,0,0,0,1.125.058,9.33,9.33,0,0,0,5.784-1.99,4.667,4.667,0,0,1-4.356-3.231,5.875,5.875,0,0,0,.88.072A4.927,4.927,0,0,0,4.659,14.5,4.659,4.659,0,0,1,.923,9.929V9.871a4.692,4.692,0,0,0,2.106.591A4.666,4.666,0,0,1,1.587,4.232a13.243,13.243,0,0,0,9.606,4.875,5.259,5.259,0,0,1-.115-1.067A4.663,4.663,0,0,1,19.14,4.852,9.173,9.173,0,0,0,22.1,3.727a4.646,4.646,0,0,1-2.048,2.567,9.34,9.34,0,0,0,2.683-.721A10.015,10.015,0,0,1,20.4,7.982Z" transform="translate(0 -3.381)" fill="#012448"/>
</svg>
