<svg xmlns="http://www.w3.org/2000/svg" xmlns:xlink="http://www.w3.org/1999/xlink" width="206" height="206" viewBox="0 0 206 206">
  <defs>
    <filter id="Ellipse_39" x="0" y="0" width="206" height="206" filterUnits="userSpaceOnUse">
      <feOffset dy="20" input="SourceAlpha"/>
      <feGaussianBlur stdDeviation="10" result="blur"/>
      <feFlood flood-color="#f487a7" flood-opacity="0.133"/>
      <feComposite operator="in" in2="blur"/>
      <feComposite in="SourceGraphic"/>
    </filter>
    <clipPath id="clip-path">
      <circle id="Ellipse_40" data-name="Ellipse 40" cx="73" cy="73" r="73" transform="translate(114 138)" fill="#eff3fc"/>
    </clipPath>
    <linearGradient id="linear-gradient" x1="0.5" x2="0.5" y2="1" gradientUnits="objectBoundingBox">
      <stop offset="0" stop-color="#ef6e94"/>
      <stop offset="1" stop-color="#ffb6cb"/>
    </linearGradient>
  </defs>
  <g id="Group_223" data-name="Group 223" transform="translate(-84 -106)">
    <g transform="matrix(1, 0, 0, 1, 84, 106)" filter="url(#Ellipse_39)">
      <circle id="Ellipse_39-2" data-name="Ellipse 39" cx="73" cy="73" r="73" transform="translate(30 10)" fill="#fff8d8"/>
    </g>
    <circle id="Ellipse_42" data-name="Ellipse 42" cx="45" cy="45" r="45" transform="translate(142 172)" fill="#ffe569" opacity="0.371"/>
    <g id="Ellipse_44" data-name="Ellipse 44" transform="translate(153 183)" fill="none" stroke="#ffd611" stroke-width="1" opacity="0.526">
      <circle cx="34" cy="34" r="34" stroke="none"/>
      <circle cx="34" cy="34" r="33.5" fill="none"/>
    </g>
    <circle id="Ellipse_41" data-name="Ellipse 41" cx="23" cy="23" r="23" transform="translate(164 194)" fill="#ffd611"/>
    <g id="Mask_Group_7" data-name="Mask Group 7" transform="translate(0 -22)" clip-path="url(#clip-path)">
      <path id="Path_245" data-name="Path 245" d="M74.5,0a24.833,24.833,0,0,0-24.83,24.83A24.834,24.834,0,0,0,0,24.829C0,37.764,5.451,49.279,12.719,58.9a19.814,19.814,0,0,1,2.226-1.458c5.765-3.248,12.924-3.634,21.278-1.167,2.18.645,4.365,1.322,6.478,1.971,9.68,2.984,18.829,5.805,27,5.805h.177c8.4-.045,14.809-3.207,20.083-9.953h0c5.524-8.563,9.344-18.4,9.344-29.24A24.834,24.834,0,0,0,74.5,0Z" transform="translate(137.728 227.397)" fill="url(#linear-gradient)"/>
    </g>
    <circle id="Ellipse_43" data-name="Ellipse 43" cx="12" cy="12" r="12" transform="translate(109 148)" fill="#ffd611"/>
  </g>
</svg>
