<svg xmlns="http://www.w3.org/2000/svg" width="45.985" height="25.326" viewBox="0 0 45.985 25.326">
  <g id="_106563" data-name="106563" transform="translate(0 -104)">
    <path id="Path_1" data-name="Path 1" d="M45.24,120.686H39.626c0-.016,0-.033,0-.05a2.338,2.338,0,0,0-1.682-2.241,2.332,2.332,0,0,0-2.675-1.641,3.113,3.113,0,0,0-3.977-1.373,2.322,2.322,0,0,0-3.753-.186,2.325,2.325,0,0,0-2.384.795,2.35,2.35,0,0,0-1.01-.031,3.113,3.113,0,0,0-5.007-.648,2.317,2.317,0,0,0-.915-.188,2.342,2.342,0,0,0-1.759.8c-.058,0-.115.01-.171.018L6.306,104.751a2.246,2.246,0,1,0-3.172,3.171L13.983,117.6l-.457.457-.007-.007a2.337,2.337,0,0,0-3.3,0l-2.631,2.632H.745a.745.745,0,0,0,0,1.49H3.129a3.308,3.308,0,0,1,2.89,1.7l1.226,2.207a6.311,6.311,0,0,0,5.513,3.244h20.47a6.31,6.31,0,0,0,5.513-3.244l1.226-2.207a3.307,3.307,0,0,1,2.89-1.7H45.24a.745.745,0,1,0,0-1.49Zm-25.8-3.635a.745.745,0,0,0,.54-.377,1.627,1.627,0,0,1,3.018.414.745.745,0,0,0,1.13.457.85.85,0,0,1,.928.007.745.745,0,0,0,1.121-.371.838.838,0,0,1,1.263-.424.745.745,0,0,0,1.121-.371.835.835,0,0,1,1.623.19.745.745,0,0,0,1.244.473,1.625,1.625,0,0,1,2.694.832.745.745,0,0,0,1.13.457.841.841,0,0,1,1.3.708.745.745,0,0,0,.745.745.845.845,0,0,1,.844.844c0,.017,0,.033,0,.05H25.685l-2.631-2.631a2.337,2.337,0,0,0-3.3,0l-.007.007L18.3,116.618a.841.841,0,0,1,.507.234A.745.745,0,0,0,19.436,117.051Zm2.934,3.635L20.8,119.115l.007-.007a.844.844,0,0,1,1.194,0l1.578,1.577Zm-18.5-14.418a.757.757,0,0,1,.755-.778h.022a.749.749,0,0,1,.543.252l8.862,9.93-9.93-8.862a.75.75,0,0,1-.253-.543Zm12.166,11.388a.844.844,0,0,1,1.194,0l3.03,3.03H16.15l-1.571-1.571Zm-4.767,1.453a.845.845,0,0,1,1.194,0l1.577,1.577H9.694Zm27.392,4.044-1.226,2.207a4.82,4.82,0,0,1-4.211,2.478H12.757a4.82,4.82,0,0,1-4.211-2.478l-1.225-2.207a4.786,4.786,0,0,0-.721-.977H39.385a4.776,4.776,0,0,0-.721.977Z" fill="#012448"/>
    <path id="Path_2" data-name="Path 2" d="M320.745,249.469a.746.746,0,1,0-.526-.219A.746.746,0,0,0,320.745,249.469Z" transform="translate(-288.218 -129.677)" fill="#012448"/>
    <path id="Path_3" data-name="Path 3" d="M288.745,241.469a.746.746,0,1,0-.526-.219A.746.746,0,0,0,288.745,241.469Z" transform="translate(-259.396 -122.472)" fill="#012448"/>
    <path id="Path_4" data-name="Path 4" d="M264.745,249.469a.746.746,0,1,0-.526-.218A.746.746,0,0,0,264.745,249.469Z" transform="translate(-237.78 -129.677)" fill="#012448"/>
  </g>
</svg>
