<svg xmlns="http://www.w3.org/2000/svg" width="36" height="28" viewBox="0 0 36 28">
  <g id="Group_190" data-name="Group 190" transform="translate(-75.391 -161.156)">
    <path id="Union_6" data-name="Union 6" d="M6,22a6,6,0,0,1-6-6V0H22.68V4.19H25a2,2,0,0,1,2,2v6.476a2,2,0,0,1-2,2H22.68V16a6,6,0,0,1-6,6ZM23.76,11.524V7.333H22.68v4.19Z" transform="translate(81.391 161.156)" fill="#89a53a"/>
    <path id="Union_7" data-name="Union 7" d="M7.177,5A4,4,0,0,1,3.3,2H0V0H36V2H32.7a4,4,0,0,1-3.874,3Z" transform="translate(75.391 184.156)" fill="#89a53a"/>
  </g>
</svg>
