<svg xmlns="http://www.w3.org/2000/svg" width="50" height="50" viewBox="0 0 50 50">
  <g id="Complications" transform="translate(-36 -377)">
    <rect id="Rectangle_24" data-name="Rectangle 24" width="50" height="50" rx="12" transform="translate(36 377)" fill="#7bf3d6"/>
    <path id="Union_2" data-name="Union 2" d="M20.61,27.5a5.533,5.533,0,0,1,.692-2.689,8.558,8.558,0,0,1-2.861.489,8.683,8.683,0,0,1-8.062-5.538l-1.792.386a4.356,4.356,0,0,1-4.248,3.5,4.4,4.4,0,0,1,0-8.8A4.322,4.322,0,0,1,8.008,16.9l1.756-.378c0-.007,0-.014,0-.022a8.835,8.835,0,0,1,2.55-6.231L11.407,8.8H11.39A4.37,4.37,0,0,1,7.051,4.4a4.339,4.339,0,1,1,8.678,0,4.427,4.427,0,0,1-.57,2.182l.9,1.455a8.6,8.6,0,0,1,8,1.752l1.513-1.381a3.355,3.355,0,0,1-.075-.708A3.254,3.254,0,1,1,28.747,11a3.211,3.211,0,0,1-.986-.154L26.1,12.361a8.908,8.908,0,0,1-.942,9.71A5.388,5.388,0,0,1,26.034,22a5.5,5.5,0,1,1-5.424,5.5Z" transform="translate(43 385)" fill="#38ac90"/>
    <circle id="Ellipse_15" data-name="Ellipse 15" cx="3.5" cy="3.5" r="3.5" transform="translate(56 401)" fill="#bcffef"/>
  </g>
</svg>
