<svg id="drug" xmlns="http://www.w3.org/2000/svg" xmlns:xlink="http://www.w3.org/1999/xlink" width="51" height="76" viewBox="0 0 51 76">
  <defs>
    <filter id="Subtraction_4" x="4" y="4" width="43.999" height="72" filterUnits="userSpaceOnUse">
      <feOffset dy="3" input="SourceAlpha"/>
      <feGaussianBlur stdDeviation="3" result="blur"/>
      <feFlood flood-color="#ffd612" flood-opacity="0.447"/>
      <feComposite operator="in" in2="blur"/>
      <feComposite in="SourceGraphic"/>
    </filter>
    <filter id="Subtraction_2" x="4" y="4" width="43.999" height="72" filterUnits="userSpaceOnUse">
      <feOffset dy="3" input="SourceAlpha"/>
      <feGaussianBlur stdDeviation="3" result="blur-2"/>
      <feFlood flood-color="#ffd612" flood-opacity="0.447"/>
      <feComposite operator="in" in2="blur-2"/>
      <feComposite in="SourceGraphic"/>
    </filter>
    <clipPath id="clip-path">
      <g transform="matrix(1, 0, 0, 1, 0, 0)" filter="url(#Subtraction_4)">
        <path id="Subtraction_4-2" data-name="Subtraction 4" d="M-2062,54a12.914,12.914,0,0,1-9.192-3.808A12.914,12.914,0,0,1-2075,41V28.636h26V41a12.914,12.914,0,0,1-3.808,9.192A12.914,12.914,0,0,1-2062,54Zm13-28.636h-26V13a12.914,12.914,0,0,1,3.808-9.192A12.914,12.914,0,0,1-2062,0a12.914,12.914,0,0,1,9.192,3.808A12.914,12.914,0,0,1-2049,13V25.363Z" transform="translate(2126 274)" fill="#ffe569"/>
      </g>
    </clipPath>
    <filter id="Subtraction_3" x="-7" y="4" width="43.999" height="72" filterUnits="userSpaceOnUse">
      <feOffset dy="3" input="SourceAlpha"/>
      <feGaussianBlur stdDeviation="3" result="blur-3"/>
      <feFlood flood-color="#ffd612" flood-opacity="0.447"/>
      <feComposite operator="in" in2="blur-3"/>
      <feComposite in="SourceGraphic"/>
    </filter>
  </defs>
  <rect id="Rectangle_46" data-name="Rectangle 46" width="51" height="73" rx="13" fill="#fff8d8"/>
  <g transform="matrix(1, 0, 0, 1, 0, 0)" filter="url(#Subtraction_2)">
    <path id="Subtraction_2-2" data-name="Subtraction 2" d="M-2062,54a12.914,12.914,0,0,1-9.192-3.808A12.914,12.914,0,0,1-2075,41V28.636h26V41a12.914,12.914,0,0,1-3.808,9.192A12.914,12.914,0,0,1-2062,54Zm13-28.636h-26V13a12.914,12.914,0,0,1,3.808-9.192A12.914,12.914,0,0,1-2062,0a12.914,12.914,0,0,1,9.192,3.808A12.914,12.914,0,0,1-2049,13V25.363Z" transform="translate(2088 10)" fill="#ffd612"/>
  </g>
  <g id="Mask_Group_4" data-name="Mask Group 4" transform="translate(-38 -264)" clip-path="url(#clip-path)">
    <g transform="matrix(1, 0, 0, 1, 38, 264)" filter="url(#Subtraction_3)">
      <path id="Subtraction_3-2" data-name="Subtraction 3" d="M-2062,54a12.914,12.914,0,0,1-9.192-3.808A12.914,12.914,0,0,1-2075,41V28.636h26V41a12.914,12.914,0,0,1-3.808,9.192A12.914,12.914,0,0,1-2062,54Zm13-28.636h-26V13a12.914,12.914,0,0,1,3.808-9.192A12.914,12.914,0,0,1-2062,0a12.914,12.914,0,0,1,9.192,3.808A12.914,12.914,0,0,1-2049,13V25.363Z" transform="translate(2077 10)" fill="#ffe569"/>
    </g>
  </g>
</svg>
