<svg id="Group_6" data-name="Group 6" xmlns="http://www.w3.org/2000/svg" width="22.951" height="20.806" viewBox="0 0 22.951 20.806">
  <path id="Path_244" data-name="Path 244" d="M43.006,136.122c-.484-.149-.985-.3-1.479-.449a4.729,4.729,0,0,0-3.681.121,2.864,2.864,0,0,0-.306.194,30.046,30.046,0,0,0,7.537,5.974,30.539,30.539,0,0,0,6.186-4.567C48.681,137.873,45.814,136.988,43.006,136.122Z" transform="translate(-33.599 -121.155)" fill="#012448"/>
  <path id="Path_245" data-name="Path 245" d="M17.218,0a5.74,5.74,0,0,0-5.739,5.739A5.74,5.74,0,0,0,0,5.735a13.132,13.132,0,0,0,2.94,7.875,4.579,4.579,0,0,1,.514-.337A6.2,6.2,0,0,1,8.372,13c.5.149,1.009.306,1.5.456A22.636,22.636,0,0,0,16.108,14.8h.041a5.555,5.555,0,0,0,4.642-2.3h0a12.449,12.449,0,0,0,2.16-6.758A5.74,5.74,0,0,0,17.218,0Z" transform="translate(0 0.005)" fill="#012448"/>
</svg>
