<svg xmlns="http://www.w3.org/2000/svg" width="50" height="50" viewBox="0 0 50 50">
  <g id="Nutrition" transform="translate(-36 -377)">
    <rect id="Rectangle_24" data-name="Rectangle 24" width="50" height="50" rx="12" transform="translate(36 377)" fill="#d5f382"/>
    <g id="food_plate" transform="translate(0 -256)">
      <path id="Union_3" data-name="Union 3" d="M-1021-995a4.993,4.993,0,0,1-4-2,4.978,4.978,0,0,1-3,1,4.983,4.983,0,0,1-2.032-.43A5,5,0,0,1-1035-992a5,5,0,0,1-5-5,5,5,0,0,1,5-5,4.982,4.982,0,0,1,2.032.43,5,5,0,0,1,4.085-4.353A5.017,5.017,0,0,1-1029-1007a5,5,0,0,1,5-5,5,5,0,0,1,5,5,4.978,4.978,0,0,1-.52,2.223A5,5,0,0,1-1016-1000a5,5,0,0,1,5,5,5,5,0,0,1-5,5A5,5,0,0,1-1021-995Z" transform="translate(1087 1654)" fill="#fff"/>
      <path id="Subtraction_1" data-name="Subtraction 1" d="M-1017-972a18.881,18.881,0,0,1-7.4-1.493,18.938,18.938,0,0,1-6.039-4.072,18.939,18.939,0,0,1-4.072-6.039A18.881,18.881,0,0,1-1036-991h38a18.879,18.879,0,0,1-1.493,7.4,18.937,18.937,0,0,1-4.072,6.039,18.938,18.938,0,0,1-6.039,4.072A18.881,18.881,0,0,1-1017-972Z" transform="translate(1078 1648)" fill="#89a53a"/>
    </g>
  </g>
</svg>
